# Blender 4.2.3 LTS
# www.blender.org
mtllib gun.mtl
o Grid
v -0.000000 0.153783 0.143760
v 0.000000 -0.095187 0.143760
v -0.000000 0.153783 -0.105210
v 0.000000 -0.095187 -0.105210
v -0.197917 0.153783 0.143760
v -0.197917 -0.095187 0.143760
v -0.197917 0.153783 -0.105210
v -0.197917 -0.095187 -0.105210
v -0.038264 0.489906 0.452697
v -0.000000 0.448867 0.435054
v -0.038264 0.451566 0.474265
v -0.038264 0.264285 0.384726
v -0.000000 0.214521 0.323192
v -0.038264 0.193296 0.356635
v -0.038264 0.027065 0.303826
v 0.000000 -0.037623 0.243396
v -0.038264 -0.046802 0.284151
v -0.038264 -0.255288 0.239055
v 0.000000 -0.273883 0.192431
v -0.038264 -0.309421 0.196555
v -0.038264 0.516582 0.186735
v -0.038264 0.512023 0.111327
v -0.000000 0.477476 0.148088
v -0.038264 -0.344581 0.124250
v 0.000000 -0.319890 0.098232
v -0.038264 -0.359855 0.051603
v -0.038264 0.477309 -0.043365
v -0.038264 0.437463 -0.102471
v -0.000000 0.424851 -0.084129
v -0.038264 -0.355421 -0.064523
v 0.000000 -0.312359 -0.103153
v -0.038264 -0.340067 -0.138411
v -0.038264 0.314123 -0.187803
v -0.038264 0.245322 -0.217959
v -0.000000 0.306234 -0.165444
v -0.038264 0.112685 -0.247755
v -0.038264 0.038134 -0.265027
v -0.000000 0.098189 -0.212195
v -0.038264 -0.082479 -0.293824
v -0.038264 -0.156550 -0.292413
v 0.000000 -0.114783 -0.263108
v -0.038264 -0.309033 -0.218039
v 0.000000 -0.266541 -0.220754
v -0.038264 -0.258286 -0.263987
v -0.159653 0.489906 0.452697
v -0.159653 0.451566 0.474265
v -0.197917 0.448867 0.435054
v -0.159653 0.264285 0.384726
v -0.159653 0.193296 0.356635
v -0.197917 0.214521 0.323192
v -0.159653 0.027065 0.303826
v -0.159653 -0.046802 0.284151
v -0.197917 -0.037623 0.243396
v -0.159653 -0.255288 0.239055
v -0.159653 -0.309421 0.196555
v -0.197917 -0.273883 0.192431
v -0.159653 0.516582 0.186735
v -0.197917 0.477476 0.148088
v -0.159653 0.512023 0.111327
v -0.159653 -0.344581 0.124250
v -0.159653 -0.359855 0.051603
v -0.197917 -0.319890 0.098232
v -0.159653 0.477309 -0.043365
v -0.197917 0.424851 -0.084129
v -0.159653 0.437463 -0.102471
v -0.159653 -0.355421 -0.064523
v -0.159653 -0.340067 -0.138411
v -0.197917 -0.312359 -0.103153
v -0.159653 0.314123 -0.187803
v -0.197917 0.306234 -0.165444
v -0.159653 0.245322 -0.217959
v -0.159653 0.112685 -0.247755
v -0.197917 0.098189 -0.212195
v -0.159653 0.038134 -0.265027
v -0.159653 -0.082479 -0.293824
v -0.197917 -0.114783 -0.263108
v -0.159653 -0.156550 -0.292413
v -0.159653 -0.309033 -0.218039
v -0.159653 -0.258286 -0.263987
v -0.197917 -0.266541 -0.220754
vn -0.0000 -0.4313 0.9022
vn -0.0000 -0.3028 0.9531
vn -0.0000 -0.2114 0.9774
vn -0.0000 0.9757 -0.2190
vn 1.0000 -0.0000 -0.0000
vn -0.0000 -0.9993 -0.0381
vn -0.0000 0.5690 -0.8224
vn -0.0000 0.2322 -0.9727
vn -0.0000 -0.9317 -0.3631
vn -1.0000 -0.0000 -0.0000
vn -0.0000 -0.8993 0.4373
vn -0.0000 -0.2691 -0.9631
vn -0.0000 0.2192 -0.9757
vn 0.6801 0.3594 0.6389
vn 0.7130 -0.2580 0.6520
vn 0.7372 -0.1739 0.6529
vn 0.5499 -0.5158 0.6570
vn 0.6922 0.7204 -0.0436
vn 0.6108 -0.7749 0.1629
vn 0.4760 0.7292 -0.4916
vn 0.6675 -0.7290 -0.1515
vn 0.5257 0.3415 -0.7791
vn 0.7039 0.1603 -0.6920
vn 0.6182 -0.0150 -0.7859
vn 0.5695 -0.5517 -0.6093
vn -0.6801 0.3594 0.6389
vn -0.7130 -0.2580 0.6520
vn -0.7372 -0.1739 0.6529
vn -0.5499 -0.5158 0.6570
vn -0.6922 0.7204 -0.0436
vn -0.6108 -0.7749 0.1629
vn -0.4760 0.7292 -0.4916
vn -0.6675 -0.7290 -0.1515
vn -0.5257 0.3415 -0.7791
vn -0.7039 0.1603 -0.6920
vn -0.6182 -0.0150 -0.7859
vn -0.5695 -0.5517 -0.6093
vn 0.7445 0.6643 0.0664
vn 0.6658 -0.3216 0.6732
vn 0.7063 -0.2139 0.6748
vn 0.7369 -0.1427 0.6608
vn 0.6606 -0.6748 0.3290
vn 0.7392 0.6570 -0.1483
vn 0.7363 -0.6762 -0.0255
vn 0.5081 0.4885 -0.7093
vn 0.7035 0.1558 -0.6934
vn 0.6990 0.1662 -0.6955
vn 0.7103 -0.6559 -0.2556
vn 0.7177 -0.1873 -0.6707
vn -0.7445 0.6643 0.0664
vn -0.6658 -0.3216 0.6732
vn -0.7063 -0.2139 0.6748
vn -0.7369 -0.1427 0.6608
vn -0.6606 -0.6748 0.3290
vn -0.7392 0.6570 -0.1483
vn -0.7363 -0.6762 -0.0255
vn -0.5081 0.4885 -0.7093
vn -0.7035 0.1558 -0.6934
vn -0.6990 0.1662 -0.6955
vn -0.7103 -0.6559 -0.2556
vn -0.7177 -0.1873 -0.6707
vn -0.0000 0.9982 -0.0604
vn -0.0000 0.8292 -0.5590
vn -0.0000 0.4015 -0.9159
vn -0.0000 0.4903 0.8716
vn -0.0000 -0.6175 0.7865
vn -0.0000 -0.2574 0.9663
vn -0.0000 0.2257 -0.9742
vn -0.0000 -0.0190 -0.9998
vn -0.0000 -0.3679 0.9299
vn -0.0000 -0.9786 0.2057
vn -0.0000 -0.9791 -0.2035
vn -0.0000 -0.6712 -0.7413
vn -0.0000 0.9950 0.0998
vt 0.044893 0.000000
vt 0.044893 0.000000
vt 0.288440 0.000000
vt 0.384160 0.000000
vt 0.615840 0.000000
vt 0.615840 0.000000
vt 0.710673 0.000000
vt 0.710673 0.000000
vt 0.955994 0.000000
vt 0.000000 0.612407
vt 0.000000 0.612407
vt 0.000000 0.387593
vt 0.333333 0.333333
vt 0.666667 0.333333
vt 0.666667 0.666667
vt 0.333333 0.666667
vt 1.000000 0.399509
vt 1.000000 0.600491
vt 0.000000 0.943690
vt 0.000000 0.722976
vt 0.000000 0.722976
vt 0.603062 1.000000
vt 0.603062 1.000000
vt 0.396938 1.000000
vt 0.396938 1.000000
vt 1.000000 0.745404
vt 1.000000 0.745404
vt 1.000000 0.921262
vt 1.000000 0.921262
vt 0.333333 0.066869
vt 0.666667 0.109655
vt 0.666667 0.109655
vt 0.666667 0.333333
vt 0.948114 0.333333
vt 0.948790 0.111461
vt 0.039028 0.333333
vt 0.046623 0.666667
vt 0.666667 0.666667
vt 0.946411 0.666667
vt 0.046623 0.666667
vt 0.052162 0.874483
vt 0.333333 0.902943
vt 0.333333 0.666667
vt 0.666667 0.666667
vt 0.666667 0.933161
vt 0.930676 0.913784
vt 0.946411 0.666667
vt 0.666667 0.933161
vt 0.930676 0.913784
vt 0.666667 0.933161
vt 0.050724 0.038366
vt 1.000000 0.081277
vt 1.000000 0.081277
vt 1.000000 0.252057
vt 0.929981 1.000000
vt 0.736685 1.000000
vt 0.736685 1.000000
vt 0.948790 0.111461
vt 0.333333 0.066870
vt 0.039028 0.333333
vt 0.046623 0.666667
vt 0.046623 0.666667
vt 0.052162 0.874483
vt 0.273303 1.000000
vt 0.060030 1.000000
vt 0.060030 1.000000
vt 0.666667 0.933161
vt 0.000000 0.037096
vt 0.000000 0.296237
vt 0.000000 0.037096
s 0
f 11/1/1 46/2/1 48/3/1 12/3/1
f 14/4/2 49/4/2 51/5/2 15/6/2
f 17/7/3 52/8/3 54/9/3 18/9/3
f 27/10/4 63/11/4 59/12/4 22/12/4
f 1/13/5 2/14/5 4/15/5 3/16/5
f 26/17/6 61/17/6 66/18/6 30/18/6
f 33/19/7 69/19/7 65/20/7 28/21/7
f 39/22/8 75/23/8 74/24/8 37/25/8
f 32/26/9 67/27/9 78/28/9 42/29/9
f 50/30/10 5/13/10 6/14/10 53/31/10
f 53/32/10 6/33/10 62/34/10 56/35/10
f 58/36/10 64/37/10 7/16/10 5/13/10
f 6/14/10 8/38/10 68/39/10 62/34/10
f 5/13/10 7/16/10 8/15/10 6/14/10
f 64/40/10 70/41/10 73/42/10 7/43/10
f 8/44/10 76/45/10 80/46/10 68/47/10
f 7/43/10 73/42/10 76/48/10 8/44/10
f 2/14/5 25/34/5 31/39/5 4/38/5
f 4/44/5 31/47/5 43/49/5 41/50/5
f 10/51/5 13/30/5 1/13/5 23/36/5
f 20/52/11 55/53/11 60/54/11 24/54/11
f 44/55/12 79/55/12 77/56/12 40/57/12
f 16/32/5 19/58/5 25/34/5 2/33/5
f 13/59/5 16/31/5 2/14/5 1/13/5
f 23/60/5 1/13/5 3/16/5 29/61/5
f 29/62/5 3/43/5 38/42/5 35/63/5
f 36/64/13 72/64/13 71/65/13 34/66/13
f 3/43/5 4/44/5 41/67/5 38/42/5
f 47/51/10 58/60/10 5/13/10 50/59/10
f 9/68/14 11/1/14 10/51/14
f 12/3/15 14/4/15 13/59/15
f 15/6/16 17/7/16 16/32/16
f 18/9/17 20/52/17 19/58/17
f 21/69/18 23/36/18 22/12/18
f 24/54/19 26/17/19 25/34/19
f 27/10/20 29/61/20 28/21/20
f 30/18/21 32/26/21 31/47/21
f 33/19/22 35/63/22 34/66/22
f 36/64/23 38/42/23 37/25/23
f 39/22/24 41/67/24 40/57/24
f 42/29/25 44/55/25 43/49/25
f 45/70/26 47/51/26 46/2/26
f 48/3/27 50/59/27 49/4/27
f 51/5/28 53/31/28 52/8/28
f 54/9/29 56/35/29 55/53/29
f 57/69/30 59/12/30 58/36/30
f 60/54/31 62/34/31 61/17/31
f 63/11/32 65/20/32 64/40/32
f 66/18/33 68/39/33 67/27/33
f 69/19/34 71/65/34 70/41/34
f 72/64/35 74/24/35 73/42/35
f 75/23/36 77/56/36 76/45/36
f 78/28/37 80/46/37 79/55/37
f 23/36/38 21/69/38 9/68/38 10/51/38
f 10/51/39 11/1/39 12/3/39 13/30/39
f 13/59/40 14/4/40 15/6/40 16/31/40
f 16/32/41 17/7/41 18/9/41 19/58/41
f 19/58/42 20/52/42 24/54/42 25/34/42
f 29/61/43 27/10/43 22/12/43 23/60/43
f 25/34/44 26/17/44 30/18/44 31/39/44
f 35/63/45 33/19/45 28/21/45 29/62/45
f 38/42/46 36/64/46 34/66/46 35/63/46
f 41/67/47 39/22/47 37/25/47 38/42/47
f 31/47/48 32/26/48 42/29/48 43/49/48
f 43/49/49 44/55/49 40/57/49 41/50/49
f 57/69/50 58/60/50 47/51/50 45/70/50
f 46/2/51 47/51/51 50/59/51 48/3/51
f 49/4/52 50/30/52 53/31/52 51/5/52
f 52/8/53 53/32/53 56/35/53 54/9/53
f 55/53/54 56/35/54 62/34/54 60/54/54
f 63/11/55 64/37/55 58/36/55 59/12/55
f 61/17/56 62/34/56 68/39/56 66/18/56
f 69/19/57 70/41/57 64/40/57 65/20/57
f 72/64/58 73/42/58 70/41/58 71/65/58
f 75/23/59 76/48/59 73/42/59 74/24/59
f 67/27/60 68/47/60 80/46/60 78/28/60
f 79/55/61 80/46/61 76/45/61 77/56/61
f 21/69/62 22/12/62 59/12/62 57/69/62
f 65/20/63 63/11/63 27/10/63 28/21/63
f 71/65/64 69/19/64 33/19/64 34/66/64
f 11/1/65 9/68/65 45/70/65 46/2/65
f 20/52/66 18/9/66 54/9/66 55/53/66
f 51/5/67 52/8/67 17/7/67 15/6/67
f 36/64/68 37/25/68 74/24/68 72/64/68
f 77/56/69 75/23/69 39/22/69 40/57/69
f 48/3/70 49/4/70 14/4/70 12/3/70
f 26/17/71 24/54/71 60/54/71 61/17/71
f 32/26/72 30/18/72 66/18/72 67/27/72
f 44/55/73 42/29/73 78/28/73 79/55/73
f 21/69/74 57/69/74 45/70/74 9/68/74
o Grid.001
v 0.005007 0.573447 1.984447
v -0.029031 0.433331 1.957531
v 0.036925 0.738325 1.317780
v 0.036925 0.565156 1.317780
v 0.036925 0.391986 1.317780
v 0.036925 0.738325 0.651114
v 0.036925 0.565156 0.651114
v 0.036925 0.445792 0.461213
v 0.036925 0.738325 -0.107338
v 0.036925 0.565156 -0.015553
v -0.007834 0.430367 -0.087289
v -0.224913 0.738325 1.317780
v -0.224913 0.565156 1.317780
v -0.157041 0.437412 1.932695
v -0.224913 0.391986 1.317780
v -0.224913 0.738325 0.651114
v -0.224913 0.565156 0.651114
v -0.224913 0.445792 0.461213
v -0.224913 0.738325 -0.107338
v -0.224913 0.565156 -0.015553
v -0.185975 0.438618 -0.088706
v 0.036925 0.738325 1.984447
v 0.036925 0.565156 1.984447
v -0.224913 0.738325 1.984447
v -0.224913 0.565156 1.984447
v 0.005007 0.730034 1.984447
v -0.192995 0.730034 1.984447
v -0.192995 0.573447 1.984447
v 0.005007 0.730034 0.426345
v 0.005007 0.573447 0.426345
v -0.192995 0.730034 0.426345
v -0.192995 0.573447 0.426345
v -0.048637 0.887004 1.833813
v 0.036925 0.860841 1.928166
v -0.048637 0.911495 1.317780
v 0.036925 0.889841 1.317780
v -0.048637 0.911495 0.651114
v 0.036925 0.889932 0.651114
v -0.048637 0.876707 0.202530
v 0.036925 0.845676 0.077956
v -0.224913 0.889841 1.317780
v -0.139350 0.911495 1.317780
v -0.139350 0.887004 1.833813
v -0.224913 0.860841 1.928166
v -0.224913 0.889932 0.651114
v -0.139350 0.911495 0.651114
v -0.139350 0.876707 0.202530
v -0.224913 0.845676 0.077956
v -0.224913 0.565156 0.393703
v -0.224913 0.738325 0.393693
v -0.224913 0.738325 1.650650
v -0.224913 0.565156 1.650670
v -0.202068 0.721919 1.527991
v -0.202068 0.721919 1.258194
v -0.202068 0.581562 1.528006
v -0.202068 0.581562 1.258194
v -0.202068 0.721919 0.717850
v -0.202068 0.581562 0.717850
v -0.202068 0.581562 0.509214
v -0.202068 0.721919 0.509206
v -0.042153 0.565156 -0.015553
v -0.042994 0.845676 0.077956
v -0.154298 0.565156 -0.015553
v -0.154298 0.845676 0.077956
v -0.041328 0.738325 -0.107338
v -0.154298 0.738325 -0.107338
v -0.154298 0.700422 -0.038632
v -0.041328 0.700422 -0.038632
v -0.154298 0.807773 0.146662
v -0.042994 0.807773 0.146662
v -0.042153 0.527252 0.053153
v -0.154298 0.527252 0.053153
v 0.036925 0.738325 1.537950
v 0.036925 0.565156 1.537946
v 0.036925 0.565156 0.498479
v 0.036925 0.738325 0.498446
v 0.006928 0.724782 1.454014
v 0.006928 0.724782 1.268283
v 0.006928 0.578699 1.454011
v 0.006928 0.578699 1.268283
v 0.006928 0.724782 0.705892
v 0.006928 0.578699 0.705892
v 0.006928 0.578699 0.577131
v 0.006928 0.724782 0.577104
vn -0.0000 0.4174 0.9087
vn 1.0000 -0.0000 -0.0000
vn 0.9748 -0.2158 0.0560
vn -0.0000 1.0000 -0.0000
vn 0.4115 -0.9114 -0.0000
vn -0.0000 0.9970 -0.0773
vn 0.9897 -0.1386 -0.0347
vn -1.0000 -0.0000 -0.0000
vn -0.9715 -0.2294 0.0596
vn -0.5833 0.8122 -0.0000
vn -0.9918 -0.1239 -0.0310
vn -0.0000 -0.9980 -0.0627
vn -0.0188 -0.9996 0.0207
vn 0.0119 0.4847 -0.8746
vn -0.0000 0.8653 -0.5013
vn -0.0639 -0.2899 0.9549
vn -0.0000 -0.4683 -0.8836
vn -0.0148 -0.9975 0.0690
vn -0.0000 -0.0000 1.0000
vn -0.0000 -1.0000 -0.0000
vn 0.2452 0.9684 0.0460
vn 0.2449 0.9696 0.0001
vn 0.2428 0.9672 -0.0748
vn -0.2452 0.9684 0.0460
vn -0.2449 0.9696 0.0001
vn -0.2428 0.9672 -0.0748
vn -0.0000 0.9703 -0.2417
vn -0.0000 0.9636 0.2672
vn -0.0000 0.9989 0.0474
vn -0.5833 -0.8122 -0.0000
vn -0.9831 -0.0000 -0.1831
vn -0.9810 -0.0000 0.1940
vn -1.0000 0.0067 0.0037
vn -0.0000 0.8756 0.4830
vn -1.0000 -0.0079 -0.0044
vn -0.0000 -0.8756 -0.4830
vn 0.4115 0.9114 -0.0000
vn 0.9417 -0.0000 -0.3365
vn 0.9344 0.0001 0.3563
vt 0.051074 0.000000
vt 0.051074 0.000000
vt 0.333333 0.000000
vt 0.666667 0.000000
vt 0.666667 0.223251
vt 0.333333 0.223249
vt 1.000000 0.000000
vt 1.000000 0.333333
vt 0.666667 0.333333
vt 0.666667 0.223251
vt 0.000000 0.666667
vt 0.000000 0.666667
vt 0.000000 0.333333
vt 0.333333 0.333333
vt 0.666667 0.333333
vt 1.000000 0.666667
vt 0.666667 0.666667
vt 0.000000 0.948491
vt 0.000000 0.948491
vt 0.000000 0.666667
vt 0.666667 0.666667
vt 1.000000 0.666667
vt 1.000000 1.000000
vt 0.666667 1.000000
vt 0.666667 0.742984
vt 0.041680 0.333333
vt 0.041507 0.666667
vt 0.333333 0.666667
vt 0.333333 0.166899
vt 0.666667 0.166889
vt 0.666667 0.166889
vt 0.041507 0.666667
vt 0.062295 1.000000
vt 0.333333 1.000000
vt 0.333333 0.779801
vt 0.333333 0.666667
vt 0.666667 0.795372
vt 0.051074 0.000000
vt 0.041680 0.333333
vt 0.041507 0.666667
vt 0.333333 0.733763
vt 0.062295 1.000000
vt 0.062295 1.000000
vt 0.051074 0.000000
vt 0.666667 1.000000
vt 0.041507 0.666667
vt 0.650708 0.000000
vt 0.349292 0.000000
vt 0.000000 0.046745
vt 0.000000 0.333333
vt 0.000000 0.046745
vt 0.666667 0.795372
vt 0.333333 1.000000
vt 0.666667 0.666667
s 0
f 114/71/75 124/72/75 104/73/75 102/73/75
f 102/73/76 103/74/76 154/75/76 153/76/76
f 103/74/77 82/77/77 85/78/77 84/79/77 154/80/77
f 117/81/78 126/82/78 122/83/78 115/83/78
f 153/76/79 157/76/79 158/84/79 83/84/79
f 84/85/76 85/78/76 88/86/76 87/87/76
f 119/88/80 127/89/80 126/90/80 117/90/80
f 87/91/81 88/92/81 91/93/81 90/94/81 155/95/81
f 121/96/82 125/97/82 96/98/82 92/84/82
f 104/73/82 131/99/82 132/100/82 105/74/82
f 105/74/83 132/101/83 93/79/83 95/78/83 94/77/83
f 125/102/82 128/103/82 99/104/82 130/105/82 96/106/82
f 97/91/84 138/91/84 139/107/84 129/107/84
f 93/85/82 97/87/82 98/86/82 95/78/82
f 97/91/85 129/107/85 100/94/85 101/93/85 98/92/85
f 85/78/86 95/78/86 98/86/86 88/86/86
f 88/92/87 98/92/87 101/93/87 91/93/87
f 124/108/82 121/109/82 92/84/82 131/99/82 104/73/82
f 91/93/88 101/93/88 100/94/88 143/94/88 141/94/88 90/94/88
f 118/110/76 86/106/76 156/111/76 89/104/76 120/112/76
f 89/104/89 145/104/89 142/113/89 120/113/89
f 114/114/76 102/73/76 153/76/76 83/84/76 116/96/76
f 103/74/90 105/74/90 94/77/90 82/77/90
f 90/115/91 141/94/91 145/104/91 89/104/91
f 116/109/76 83/84/76 86/98/76 118/116/76
f 82/77/92 94/77/92 95/78/92 85/78/92
f 81/117/93 103/74/93 102/73/93 106/118/93
f 107/118/93 104/73/93 105/74/93 108/117/93
f 108/117/93 105/74/93 103/74/93 81/117/93
f 106/118/93 102/73/93 104/73/93 107/118/93
f 81/117/78 110/117/78 112/117/78 108/117/78
f 109/118/93 111/118/93 112/117/93 110/117/93
f 106/118/82 109/118/82 110/117/82 81/117/82
f 107/118/94 111/118/94 109/118/94 106/118/94
f 108/117/76 112/117/76 111/118/76 107/118/76
f 116/96/95 115/83/95 113/119/95 114/114/95
f 118/116/96 117/81/96 115/83/96 116/109/96
f 120/112/97 119/88/97 117/90/97 118/110/97
f 122/120/98 121/109/98 124/108/98 123/121/98
f 126/82/99 125/97/99 121/96/99 122/83/99
f 127/89/100 128/103/100 125/102/100 126/90/100
f 119/88/101 120/113/101 142/113/101 144/113/101 128/112/101 127/89/101
f 114/71/102 113/119/102 123/121/102 124/72/102
f 115/83/103 122/120/103 123/121/103 113/119/103
f 130/105/82 99/104/82 100/115/82 129/122/82
f 133/99/82 134/84/82 137/98/82 140/105/82 139/122/82 138/91/82 136/85/82 135/100/82
f 132/101/84 135/101/84 136/79/84 93/79/84
f 92/84/104 134/84/104 133/99/104 131/99/104
f 131/99/105 133/99/105 135/100/105 132/100/105
f 93/85/84 136/85/84 138/87/84 97/87/84
f 130/105/104 140/105/104 137/106/104 96/106/104
f 129/122/106 139/122/106 140/105/106 130/105/106
f 96/98/104 137/98/104 134/84/104 92/84/104
f 146/123/76 147/123/76 152/94/76 143/94/76
f 141/94/107 151/94/107 148/104/107 145/104/107
f 143/94/91 100/115/91 99/104/91 146/123/91
f 146/123/89 99/104/89 128/112/89 144/113/89
f 151/94/91 152/94/91 147/123/91 148/104/91
f 148/104/89 147/123/89 149/113/89 150/113/89
f 143/94/108 152/94/108 151/94/108 141/94/108
f 145/104/109 148/104/109 150/113/109 142/113/109
f 142/113/110 150/113/110 149/113/110 144/113/110
f 144/113/76 149/113/76 147/123/76 146/123/76
f 155/95/76 90/115/76 89/104/76 156/111/76
f 159/75/76 160/85/76 162/124/76 163/95/76 164/111/76 161/106/76 158/84/76 157/76/76
f 87/87/111 162/87/111 160/85/111 84/85/111
f 86/106/79 161/106/79 164/111/79 156/111/79
f 154/75/112 159/75/112 157/76/112 153/76/112
f 83/84/79 158/84/79 161/98/79 86/98/79
f 156/111/113 164/111/113 163/95/113 155/95/113
f 155/95/111 163/95/111 162/91/111 87/91/111
f 84/79/111 160/79/111 159/80/111 154/80/111
l 146 145
o Grid.002
v -0.076532 0.694992 -0.003014
v -0.076532 0.728264 -0.035885
v -0.076532 0.714695 0.035645
v -0.076532 0.763617 0.000117
v -0.076532 0.787851 -0.039589
v -0.076532 0.833548 -0.062211
v -0.076532 0.719078 0.051352
v -0.076532 0.764775 0.028730
v -0.076532 0.810473 0.006108
v -0.076532 0.856170 -0.016514
v -0.076532 0.767436 0.122764
v -0.076532 0.806869 0.079491
v -0.076532 0.833095 0.051805
v -0.076532 0.850281 0.017284
v -0.076532 0.762890 -0.067164
v -0.076532 0.806285 -0.080729
v -0.100502 0.694992 -0.003014
v -0.100502 0.728264 -0.035885
v -0.100502 0.714695 0.035645
v -0.100502 0.763617 0.000117
v -0.100502 0.787851 -0.039589
v -0.100502 0.719078 0.051352
v -0.100502 0.764775 0.028730
v -0.100502 0.810473 0.006108
v -0.100502 0.767436 0.122764
v -0.100502 0.806869 0.079491
v -0.100502 0.833095 0.051805
v -0.100502 0.850281 0.017284
v -0.100502 0.833548 -0.062211
v -0.100502 0.856170 -0.016514
v -0.100502 0.762890 -0.067164
v -0.100502 0.806285 -0.080729
vn 1.0000 -0.0000 -0.0000
vn -1.0000 -0.0000 -0.0000
vn -0.0000 0.7260 0.6877
vn -0.0000 0.9852 0.1716
vn -0.0000 -0.8910 0.4541
vn -0.0000 0.5619 -0.8272
vn -0.0000 0.8952 0.4457
vn -0.0000 -0.7028 -0.7114
vn -0.0000 0.8962 -0.4437
vn -0.0000 -0.8280 0.5607
vn -0.0000 -0.9632 0.2688
vn -0.0000 -0.6703 -0.7421
vn -0.0000 0.7391 0.6736
vn -0.0000 -0.2984 -0.9545
vt 0.000000 0.000000
vt 0.000000 0.333333
vt 0.333333 0.333333
vt 0.333333 0.000000
vt 0.666667 0.333333
vt 0.666667 0.000000
vt 0.666667 0.333333
vt 1.000000 0.333333
vt 1.000000 0.000000
vt 0.000000 0.666667
vt 0.333333 0.666667
vt 0.666667 0.666667
vt 0.666667 0.666667
vt 1.000000 0.666667
vt 0.000000 0.666667
vt 0.000000 1.000000
vt 0.333333 1.000000
vt 0.333333 0.666667
vt 0.666667 1.000000
vt 0.666667 0.666667
vt 0.666667 1.000000
vt 1.000000 1.000000
vt 1.000000 0.666667
s 0
f 165/125/114 166/128/114 168/127/114 167/126/114
f 166/128/114 179/130/114 169/129/114 168/127/114
f 179/130/114 180/133/114 170/132/114 169/131/114
f 167/126/114 168/127/114 172/135/114 171/134/114
f 168/127/114 169/129/114 173/136/114 172/135/114
f 169/129/114 170/132/114 174/138/114 173/137/114
f 171/139/114 172/142/114 176/141/114 175/140/114
f 172/142/114 173/144/114 177/143/114 176/141/114
f 173/144/114 174/147/114 178/146/114 177/145/114
f 181/125/115 183/126/115 184/127/115 182/128/115
f 182/128/115 184/127/115 185/129/115 195/130/115
f 195/130/115 185/131/115 193/132/115 196/133/115
f 183/126/115 186/134/115 187/135/115 184/127/115
f 184/127/115 187/135/115 188/136/115 185/129/115
f 185/129/115 188/137/115 194/138/115 193/132/115
f 186/139/115 189/140/115 190/141/115 187/142/115
f 187/142/115 190/141/115 191/143/115 188/144/115
f 188/144/115 191/145/115 192/146/115 194/147/115
f 177/143/116 191/143/116 190/141/116 176/141/116
f 174/147/117 194/147/117 192/146/117 178/146/117
f 167/126/118 183/126/118 181/125/118 165/125/118
f 180/133/119 196/133/119 193/132/119 170/132/119
f 178/146/120 192/146/120 191/145/120 177/145/120
f 165/125/121 181/125/121 182/128/121 166/128/121
f 170/132/122 193/132/122 194/138/122 174/138/122
f 175/140/123 189/140/123 186/139/123 171/139/123
f 171/134/124 186/134/124 183/126/124 167/126/124
f 166/128/125 182/128/125 195/130/125 179/130/125
f 176/141/126 190/141/126 189/140/126 175/140/126
f 179/130/127 195/130/127 196/133/127 180/133/127
o Grid.003
v -0.087130 0.461989 0.521587
v -0.087130 0.382851 0.517226
v -0.087130 0.293458 0.542734
v -0.087130 0.240040 0.564039
v -0.087130 0.478323 0.487796
v -0.087130 0.397257 0.508171
v -0.087130 0.303936 0.495660
v -0.087130 0.234331 0.513406
v -0.087130 0.358290 0.457940
v -0.087130 0.493417 0.447713
v -0.087130 0.422829 0.441721
v -0.087130 0.367014 0.444652
v -0.087130 0.294731 0.456485
v -0.114523 0.461989 0.521587
v -0.114523 0.382851 0.517226
v -0.114523 0.293458 0.542734
v -0.114523 0.240040 0.564039
v -0.114523 0.478323 0.487796
v -0.114523 0.397257 0.508171
v -0.114523 0.303936 0.495660
v -0.114523 0.234331 0.513406
v -0.114523 0.358290 0.457940
v -0.114523 0.493417 0.447713
v -0.114523 0.422829 0.441721
v -0.114523 0.367014 0.444652
v -0.114523 0.294731 0.456485
vn 1.0000 -0.0000 -0.0000
vn -1.0000 -0.0000 -0.0000
vn -0.0000 0.2744 0.9616
vn -0.0000 0.9358 0.3524
vn -0.0000 -0.0550 0.9985
vn -0.0000 -0.9937 0.1120
vn -0.0000 -0.6858 -0.7278
vn -0.0000 0.0846 -0.9964
vn -0.0000 -0.1615 -0.9869
vn -0.0000 0.9003 0.4352
vn -0.0000 0.3705 0.9288
vn -0.0000 -0.0525 -0.9986
vt 0.000000 0.000000
vt 0.333333 0.000000
vt 0.333333 0.333333
vt 0.000000 0.333333
vt 0.666667 0.000000
vt 0.666667 0.333333
vt 1.000000 0.000000
vt 1.000000 0.333333
vt 0.666667 0.333333
vt 0.333333 1.000000
vt 0.000000 1.000000
vt 0.666667 0.666667
vt 0.666667 1.000000
vt 1.000000 1.000000
vt 0.666667 1.000000
vt 0.666667 0.666667
s 0
f 197/148/128 198/149/128 202/150/128 201/151/128
f 198/149/128 199/152/128 203/153/128 202/150/128
f 199/152/128 200/154/128 204/155/128 203/156/128
f 207/157/128 206/158/128 201/151/128 202/150/128 203/153/128 205/159/128 208/160/128
f 204/155/128 209/161/128 208/162/128 205/163/128 203/153/128
f 210/148/129 214/151/129 215/150/129 211/149/129
f 211/149/129 215/150/129 216/153/129 212/152/129
f 212/152/129 216/156/129 217/155/129 213/154/129
f 220/157/129 221/160/129 218/159/129 216/153/129 215/150/129 214/151/129 219/158/129
f 217/155/129 216/153/129 218/163/129 221/162/129 222/161/129
f 198/149/130 211/149/130 212/152/130 199/152/130
f 206/158/131 219/158/131 214/151/131 201/151/131
f 197/148/132 210/148/132 211/149/132 198/149/132
f 200/154/133 213/154/133 217/155/133 204/155/133
f 204/155/134 217/155/134 222/161/134 209/161/134
f 207/157/135 220/157/135 219/158/135 206/158/135
f 209/161/136 222/161/136 221/162/136 208/162/136
f 201/151/137 214/151/137 210/148/137 197/148/137
f 199/152/138 212/152/138 213/154/138 200/154/138
f 208/160/139 221/160/139 220/157/139 207/157/139
