# Blender 5.0.0
# www.blender.org
mtllib pusher.mtl
o Cube.021
v -1.319264 -2.076571 1.319264
v -1.319264 -1.319264 2.076571
v -2.076571 -1.319264 1.319264
v -1.319264 1.319264 2.076571
v -1.319264 2.076571 1.319264
v -2.076571 1.319264 1.319264
v -1.319264 -2.076571 -1.319264
v -2.076571 -1.319264 -1.319264
v -1.319264 -1.319264 -2.076571
v -1.319264 2.076571 -1.319264
v -1.319264 1.319264 -2.076571
v -2.076571 1.319264 -1.319264
v 1.319264 -2.076571 1.319264
v 2.076571 -1.319264 1.319264
v 1.319264 -1.319264 2.076571
v 1.319264 2.076571 1.319264
v 1.319264 1.319264 2.076571
v 2.076571 1.319264 1.319264
v 1.319264 -2.076571 -1.319264
v 1.319264 -1.319264 -2.076571
v 2.076571 -1.319264 -1.319264
v 1.319264 2.076571 -1.319264
v 2.076571 1.319264 -1.319264
v 1.319264 1.319264 -2.076571
vn -0.0000 -0.0000 1.0000
vn 1.0000 -0.0000 -0.0000
vn -0.0000 1.0000 -0.0000
vn -1.0000 -0.0000 -0.0000
vn -0.0000 -0.0000 -1.0000
vn -0.5774 -0.5774 0.5774
vn -0.5774 0.5774 0.5774
vn -0.5774 -0.5774 -0.5774
vn -0.5774 0.5774 -0.5774
vn 0.5774 -0.5774 0.5774
vn 0.5774 0.5774 0.5774
vn 0.5774 -0.5774 -0.5774
vn 0.5774 0.5774 -0.5774
vn -0.7071 -0.7071 -0.0000
vn -0.7071 -0.0000 0.7071
vn -0.7071 0.7071 -0.0000
vn -0.7071 -0.0000 -0.7071
vn -0.0000 -0.7071 -0.7071
vn -0.0000 0.7071 -0.7071
vn 0.7071 -0.0000 -0.7071
vn 0.7071 -0.7071 -0.0000
vn 0.7071 0.7071 -0.0000
vn 0.7071 -0.0000 0.7071
vn -0.0000 -0.7071 0.7071
vn -0.0000 0.7071 0.7071
vn -0.0000 -1.0000 -0.0000
vt 1.000765 0.000255
vt 1.000765 1.001675
vt -0.005906 1.001675
vt -0.005906 0.000255
vt 1.008657 -0.000076
vt 1.008657 0.999058
vt 0.002439 0.999058
vt 0.002439 -0.000076
vt 0.994637 0.002652
vt 0.994637 0.996668
vt -0.000736 0.996668
vt -0.000735 0.002652
vt 0.995644 0.003203
vt 0.995644 0.998728
vt -0.005133 0.998728
vt -0.005133 0.003203
vt 0.999316 0.000255
vt 0.999316 1.004623
vt -0.004408 1.004623
vt -0.004408 0.000255
vt 1.135285 0.922561
vt 1.011141 1.098127
vt 0.886996 0.922561
vt 1.127616 0.977759
vt 0.952050 1.101903
vt 0.952050 0.853615
vt 1.150140 1.046196
vt 0.901851 1.046196
vt 1.025996 0.870629
vt 1.064543 1.116758
vt 0.888976 0.992614
vt 1.064543 0.868470
vt 1.060050 0.885243
vt 1.060050 1.133532
vt 0.884484 1.009387
vt 1.071191 1.104355
vt 0.895625 0.980211
vt 1.071191 0.856066
vt 0.958698 0.877816
vt 1.134264 1.001960
vt 0.958698 1.126104
vt 1.020506 1.117894
vt 0.885205 0.917820
vt 1.094329 0.922185
vt 0.895564 0.083497
vt 0.085187 0.083496
vt 0.085187 -0.092070
vt 0.895564 -0.092070
vt 1.088133 0.110706
vt 1.088132 0.888617
vt 0.914119 0.888617
vt 0.914119 0.110706
vt 0.108974 0.928617
vt 0.888402 0.928617
vt 0.888402 1.067828
vt 0.108974 1.067828
vt 0.919090 0.884106
vt 0.905825 0.107381
vt 1.089016 0.107382
vt 1.089016 0.887615
vt 0.106520 0.934417
vt 0.889393 0.934417
vt 0.889393 1.073628
vt 0.106520 1.073628
vt 0.890502 1.065075
vt 0.111074 1.065074
vt 0.111074 0.925863
vt 0.890502 0.925864
vt 0.915990 0.886443
vt 0.915990 0.108533
vt 1.093716 0.108533
vt 1.093716 0.886443
vt 0.114897 -0.089316
vt 0.882566 -0.089316
vt 0.882566 0.086250
vt 0.114897 0.086250
vt 0.889505 1.071127
vt 0.104910 1.071127
vt 0.104910 0.931917
vt 0.889505 0.931917
vt 0.912033 0.888300
vt 0.912033 0.108533
vt 1.087903 0.110390
vt 1.087903 0.890157
vt 0.110589 0.934251
vt 0.890017 0.934251
vt 0.890017 1.073462
vt 0.110589 1.073462
vt 0.890476 1.068560
vt 0.106994 1.068560
vt 0.106994 0.930229
vt 0.890476 0.930229
vt 0.998365 0.001794
vt 0.998365 0.997319
vt 0.003484 0.997319
vt 0.003484 0.001794
s 0
usemtl eye
f 15/1/1 17/2/1 4/3/1 2/4/1
f 21/5/2 23/6/2 18/7/2 14/8/2
f 22/9/3 10/10/3 5/11/3 16/12/3
f 3/13/4 6/14/4 12/15/4 8/16/4
f 9/17/5 11/18/5 24/19/5 20/20/5
f 1/21/6 2/22/6 3/23/6
f 4/24/7 5/25/7 6/26/7
f 7/27/8 8/28/8 9/29/8
f 10/30/9 11/31/9 12/32/9
f 13/33/10 14/34/10 15/35/10
f 16/36/11 17/37/11 18/38/11
f 19/39/12 20/40/12 21/41/12
f 22/42/13 23/43/13 24/44/13
f 7/45/14 1/46/14 3/47/14 8/48/14
f 2/49/15 4/50/15 6/51/15 3/52/15
f 5/53/16 10/54/16 12/55/16 6/56/16
f 11/57/17 9/58/17 8/59/17 12/60/17
f 19/61/18 7/62/18 9/63/18 20/64/18
f 10/65/19 22/66/19 24/67/19 11/68/19
f 23/69/20 21/70/20 20/71/20 24/72/20
f 13/73/21 19/74/21 21/75/21 14/76/21
f 22/77/22 16/78/22 18/79/22 23/80/22
f 17/81/23 15/82/23 14/83/23 18/84/23
f 1/85/24 13/86/24 15/87/24 2/88/24
f 16/89/25 5/90/25 4/91/25 17/92/25
f 7/93/26 19/94/26 13/95/26 1/96/26
